HIERARCHY
ROOT Hips
{
    OFFSET 0.000000 0.000000 0.000000
    CHANNELS 6 Xposition Yposition Zposition Zrotation Xrotation Yrotation
    JOINT Spine
    {
        OFFSET -0.000000 7.236184 0.000000
        CHANNELS 3 Zrotation Xrotation Yrotation
        JOINT Spine1
        {
            OFFSET -0.000000 20.420147 0.000000
            CHANNELS 3 Zrotation Xrotation Yrotation
            JOINT Neck
            {
                OFFSET -0.000000 20.336288 1.848754
                CHANNELS 3 Zrotation Xrotation Yrotation
                JOINT Head
                {
                    OFFSET -0.000000 12.354461 -1.764923
                    CHANNELS 3 Zrotation Xrotation Yrotation
                    End Site
                    {
                        OFFSET -0.000000 22.061537 0.000000
                    }
                }
            }
            JOINT LeftShoulder
            {
                OFFSET 3.573296 18.396038 -0.314103
                CHANNELS 3 Zrotation Xrotation Yrotation
                JOINT LeftArm
                {
                    OFFSET 10.880760 0.000000 0.000000
                    CHANNELS 3 Zrotation Xrotation Yrotation
                    JOINT LeftForeArm
                    {
                        OFFSET 27.185530 0.000000 0.000000
                        CHANNELS 3 Zrotation Xrotation Yrotation
                        JOINT LeftHand
                        {
                            OFFSET 27.825975 0.000000 0.000000
                            CHANNELS 3 Zrotation Xrotation Yrotation
                            End Site
                            {
                                OFFSET 13.236923 0.000000 0.000000
                            }
                        }
                    }
                }
            }
            JOINT RightShoulder
            {
                OFFSET -3.474926 18.396038 -0.314103
                CHANNELS 3 Zrotation Xrotation Yrotation
                JOINT RightArm
                {
                    OFFSET -10.880760 0.000000 0.000000
                    CHANNELS 3 Zrotation Xrotation Yrotation
                    JOINT RightForeArm
                    {
                        OFFSET -27.185530 0.000000 0.000000
                        CHANNELS 3 Zrotation Xrotation Yrotation
                        JOINT RightHand
                        {
                            OFFSET -27.825975 0.000000 0.000000
                            CHANNELS 3 Zrotation Xrotation Yrotation
                            End Site
                            {
                                OFFSET -13.236923 0.000000 0.000000
                            }
                        }
                    }
                }
            }
        }
    }
    JOINT LeftUpLeg
    {
        OFFSET 8.824615 0.000000 0.000000
        CHANNELS 3 Zrotation Xrotation Yrotation
        JOINT LeftLeg
        {
            OFFSET -0.000000 -35.111282 0.000000
            CHANNELS 3 Zrotation Xrotation Yrotation
            JOINT LeftFoot
            {
                OFFSET -0.000000 -42.324711 0.000000
                CHANNELS 3 Zrotation Xrotation Yrotation
                JOINT LeftToeBase
                {
                    OFFSET -0.000000 -5.735999 13.236923
                    CHANNELS 3 Zrotation Xrotation Yrotation
                    End Site
                    {
                        OFFSET -0.000000 0.000000 3.529846
                    }
                }
            }
        }
    }
    JOINT RightUpLeg
    {
        OFFSET -8.824615 0.000000 0.000000
        CHANNELS 3 Zrotation Xrotation Yrotation
        JOINT RightLeg
        {
            OFFSET -0.000000 -35.111282 0.000000
            CHANNELS 3 Zrotation Xrotation Yrotation
            JOINT RightFoot
            {
                OFFSET -0.000000 -42.324711 0.000000
                CHANNELS 3 Zrotation Xrotation Yrotation
                JOINT RightToeBase
                {
                    OFFSET -0.000000 -5.735999 13.236923
                    CHANNELS 3 Zrotation Xrotation Yrotation
                    End Site
                    {
                        OFFSET -0.000000 0.000000 3.529846
                    }
                }
            }
        }
    }
}
MOTION
Frames:    5
Frame Time:    0.008333
-1.549687    86.514679    95.560417    13.875082    26.834429    -95.214249    -3.793609    -9.785638    0.053668    5.251623    7.261785    0.045154    9.706228    19.501627    -27.136780    28.232838    2.098263    -24.775999    13.656310    2.873089    -8.431658    -26.693205    34.447475    -52.728050    33.414742    -24.127060    -90.341164    46.309589    7.947964    -6.696667    -3.133981    15.607492    -2.076745    44.434704    34.607330    23.542969    -22.943817    -0.874163    34.857841    -59.895424    0.709758    9.907195    28.797609    -26.591013    11.336586    -0.287247    31.476246    9.840384    -1.400481    -9.114942    -13.917416    1.259047    -3.927192    -1.405860    -24.374472    -46.589863    -17.830019    46.596016    62.729118    -39.140633    18.014296    14.543238    -9.683982    -2.105654    0.414444    2.276098    
-1.497930    86.995384    95.459518    13.972876    27.705954    -95.085197    -3.550583    -9.584888    -0.077766    5.871803    7.196324    -0.149326    9.909112    19.568205    -27.058655    28.332117    2.459710    -24.758350    14.181690    2.198636    -8.891473    -25.885221    34.362682    -53.648884    33.652893    -25.292549    -91.995628    45.957497    8.106924    -6.691563    -3.408530    15.254290    -1.707856    43.970108    33.565777    23.290770    -22.444918    -0.781820    34.033878    -59.625210    0.521084    9.853245    29.708954    -26.341522    11.627239    -0.213468    30.613344    10.083994    -1.644993    -7.981514    -14.367024    1.327213    -4.085176    -1.482427    -26.507935    -46.900459    -19.183094    48.812561    63.836769    -41.157112    17.653299    14.231603    -9.532159    -2.106201    0.362559    2.276850    
-1.446959    87.481499    95.357536    14.079376    28.576002    -94.949135    -3.303632    -9.389451    -0.210458    6.482763    7.136616    -0.342820    10.104177    19.638498    -26.978085    28.439352    2.801425    -24.732647    14.662750    1.562706    -9.308181    -25.220016    34.181377    -54.489769    33.765938    -26.335537    -93.648438    45.626976    8.272292    -6.723812    -3.638558    14.917492    -1.375692    43.466053    32.551853    23.063543    -21.964684    -0.735269    33.218819    -59.283749    0.319582    9.785021    30.629606    -26.124001    11.955688    -0.131642    29.774555    10.322594    -1.912150    -6.812629    -14.855212    1.393091    -4.250874    -1.556509    -28.690617    -47.105476    -20.483105    51.015388    64.811104    -43.149818    17.290960    13.925576    -9.434482    -2.087118    0.251587    2.256564    
-1.395653    87.980690    95.252617    14.197485    29.461008    -94.802719    -3.047011    -9.195965    -0.342585    7.092921    7.081291    -0.537234    10.300469    19.712543    -26.896540    28.554510    3.125851    -24.700684    15.107317    0.954968    -9.692478    -24.680305    33.911537    -55.276604    33.755417    -27.269777    -95.341751    45.313320    8.452823    -6.791654    -3.825490    14.592000    -1.076460    42.911396    31.548601    22.856308    -21.491062    -0.735310    32.392303    -58.866585    0.098332    9.698250    31.579245    -25.941591    12.331707    -0.041729    28.954849    10.557912    -2.205562    -5.589626    -15.388512    1.455512    -4.425920    -1.626805    -30.959269    -47.202374    -21.752043    53.179718    65.669304    -45.085979    16.929419    13.624232    -9.389099    -2.046085    0.086034    2.212701    
-1.346132    88.469353    95.149399    14.322416    30.322821    -94.652702    -2.790973    -9.013143    -0.467559    7.673557    7.032590    -0.719659    10.493979    19.786299    -26.820168    28.670752    3.416349    -24.666037    15.497358    0.400873    -10.033067    -24.277140    33.579617    -55.988338    33.629589    -28.057680    -97.006882    45.029251    8.643364    -6.888190    -3.961654    14.290942    -0.822641    42.332359    30.599770    22.674097    -21.041422    -0.781275    31.585106    -58.397366    -0.135373    9.595337    32.518219    -25.806528    12.738895    0.049968    28.198456    10.779479    -2.509038    -4.372200    -15.937843    1.509736    -4.600224    -1.687983    -33.207176    -47.185001    -22.935907    55.133286    66.381767    -46.802155    16.592453    13.346818    -9.395267    -1.984782    -0.115375    2.147000    
